<?xml version="1.0" encoding="UTF-8" standalone="no"?>
<!-- Created with Inkscape (http://www.inkscape.org/) -->

<svg
   xmlns:dc="http://purl.org/dc/elements/1.1/"
   xmlns:cc="http://creativecommons.org/ns#"
   xmlns:rdf="http://www.w3.org/1999/02/22-rdf-syntax-ns#"
   xmlns:svg="http://www.w3.org/2000/svg"
   xmlns="http://www.w3.org/2000/svg"
   xmlns:sodipodi="http://sodipodi.sourceforge.net/DTD/sodipodi-0.dtd"
   xmlns:inkscape="http://www.inkscape.org/namespaces/inkscape"
   width="649.81366mm"
   height="128.25793mm"
   viewBox="0 0 2302.4893 454.45725"
   id="svg2"
   version="1.1"
   inkscape:version="0.91 r13725"
   sodipodi:docname="logo.svg"
   style="enable-background:new">
  <defs
     id="defs4" />
  <sodipodi:namedview
     id="base"
     pagecolor="#ffffff"
     bordercolor="#666666"
     borderopacity="1.0"
     inkscape:pageopacity="0.0"
     inkscape:pageshadow="2"
     inkscape:zoom="0.5"
     inkscape:cx="1770.7014"
     inkscape:cy="461.17469"
     inkscape:document-units="px"
     inkscape:current-layer="layer1"
     showgrid="false"
     inkscape:window-width="1366"
     inkscape:window-height="744"
     inkscape:window-x="0"
     inkscape:window-y="24"
     inkscape:window-maximized="1"
     fit-margin-top="0"
     fit-margin-left="0"
     fit-margin-right="0"
     fit-margin-bottom="0" />
  <metadata
     id="metadata7">
    <rdf:RDF>
      <cc:Work
         rdf:about="">
        <dc:format>image/svg+xml</dc:format>
        <dc:type
           rdf:resource="http://purl.org/dc/dcmitype/StillImage" />
        <dc:title />
      </cc:Work>
    </rdf:RDF>
  </metadata>
  <g
     inkscape:label="logo"
     inkscape:groupmode="layer"
     id="layer1"
     transform="translate(836.17184,123.26902)">
    <g
       id="g6008">
      <path
         id="path5392"
         d="m -698.6824,330.73995 c -29.0101,-2.25238 -50.33279,-7.47017 -71.21716,-17.42724 -40.89228,-19.49629 -61.89133,-47.0953 -65.59818,-86.21551 l -0.61911,-6.53379 43.06723,0.23379 43.06722,0.23378 0.53458,4.97001 c 2.25721,20.98521 19.75135,36.29097 46.88819,41.02285 11.20103,1.95313 30.59981,1.30727 40.66757,-1.35399 17.06587,-4.51111 29.5726,-13.70256 32.54157,-23.91546 2.87271,-9.88177 -0.0938,-16.60574 -10.29506,-23.33523 -8.28484,-5.46527 -19.58157,-9.69664 -37.43685,-14.02258 -84.8782,-20.56412 -99.11529,-25.54031 -118.91205,-41.56251 -11.53916,-9.33903 -21.56895,-24.65632 -25.02457,-38.21699 -6.64617,-26.081194 -0.35662,-60.041114 15.12247,-81.652474 22.64284,-31.61315 76.78132,-51.2370303 130.77401,-47.4023903 37.78317,2.6834 67.69041,14.8281103 90.44408,36.7274503 16.24213,15.63229 25.62381,34.09612 29.05046,57.17343 0.76758,5.16939 1.3956,9.85316 1.3956,10.40839 0,0.731314 -11.36895,1.009494 -41.25678,1.009494 l -41.25679,0 -1.11777,-4.994754 c -0.61478,-2.74711 -2.71308,-8.18206 -4.66289,-12.07767 -8.43953,-16.86165 -24.72895,-24.79349 -50.75577,-24.71463 -9.26034,0.0281 -13.16219,0.44901 -18.71234,2.01874 -13.74858,3.88849 -24.95707,11.27402 -29.01301,19.11733 -2.23101,4.31431 -2.76947,12.48681 -1.04272,15.82598 5.24043,10.133884 20.85609,17.006584 58.1942,25.612234 45.21178,10.42035 75.70335,19.17317 88.94931,25.53349 29.57141,14.19933 46.97616,36.93281 49.5279,64.69161 1.79491,19.5258 -1.86697,40.05244 -10.13967,56.83767 -16.43841,33.35347 -49.87748,54.11254 -97.07472,60.26431 -10.60597,1.3824 -37.59585,2.40408 -46.08895,1.74466 z"
         style="fill:none;stroke:#000000;stroke-width:0.1;stroke-miterlimit:4;stroke-dasharray:none;stroke-opacity:1" />
      <path
         id="path5390"
         transform="translate(-836.17184,-123.26902)"
         d="M 457.29297 120.86914 C 452.79701 120.87989 448.23876 121.05419 443.62695 121.39453 C 404.82459 124.25806 376.59253 135.81765 354.29688 157.9668 C 341.83155 170.35019 334.0784 182.31942 327.03711 200.05664 C 324.41701 206.65673 318.83984 227.41763 318.83984 230.56836 C 318.83984 232.21421 320.13878 232.26185 359.04688 232.03516 L 399.25391 231.80078 L 400.29688 227.16406 C 404.17745 209.93132 420.4753 195.11159 440.78906 190.34375 C 449.55295 188.28677 466.37736 188.98779 474.51953 191.75 C 487.36601 196.10813 497.58186 203.14244 503.12891 211.44922 C 514.17479 227.99056 507.67497 240.8124 484.43945 248.31836 C 474.39225 251.56399 467.72862 252.76648 438.99023 256.51758 C 383.59218 263.74843 368.81169 267.52426 351.85352 278.7832 C 332.9119 291.359 319.1517 310.68002 313.51172 332.61914 C 303.17877 372.8136 315.56759 411.19446 346.26367 434.08203 C 361.96158 445.78668 378.04677 451.64972 399.83984 453.61133 C 411.55198 454.66502 483.96694 454.67137 494.2207 453.61914 C 538.21754 449.10421 571.41613 420.49383 587.10352 373.57422 C 593.68698 353.88365 594.34355 347.83331 594.86719 302 C 595.37257 257.76607 594.54744 238.87692 591.45898 223.97266 C 584.42642 190.0351 566.3549 162.09335 539.77539 144.0625 C 517.19711 128.74596 488.76465 120.79392 457.29297 120.86914 z M 506.46289 292.78906 C 506.53553 292.78634 506.58734 292.79828 506.61523 292.82617 C 506.83835 293.0493 507.38294 300.06466 507.82617 308.41602 C 508.90393 328.72285 507.80052 348.69045 505.16992 356.44922 C 498.35223 376.55753 483.28783 391.36031 465.33203 395.59375 C 461.43059 396.5136 454.69205 396.91785 443.49023 396.90625 C 429.50954 396.89171 426.5489 396.63506 421.88867 395.03516 C 414.99077 392.66706 405.23586 386.19695 401.27344 381.36133 C 384.59024 361.00169 391.57222 330.07366 415.41016 318.74609 C 422.59139 315.33364 427.86278 314.01225 451.75781 309.62891 C 478.6166 304.7019 493.76447 300.2362 502.75 294.59375 C 504.41514 293.54813 505.95443 292.80813 506.46289 292.78906 z "
         style="fill:none;stroke:#000000;stroke-width:0.1;stroke-miterlimit:4;stroke-dasharray:none;stroke-opacity:1" />
      <path
         id="path5386"
         d="M -7.0502302,227.02135 C -7.0612102,162.68227 -7.4107522,120.56014 -7.9654222,116.72282 -11.305169,93.617856 -25.985879,75.604786 -47.011832,68.813286 c -9.694017,-3.13122 -26.65233,-3.9483 -36.070569,-1.73795 -10.872108,2.55156 -18.828679,7.1194 -27.475539,15.77359 -8.63749,8.64481 -13.08686,16.10834 -16.11303,27.028674 -1.83376,6.61734 -1.86143,8.30643 -1.86143,113.61029 l 0,106.89309 -42.3,0 -42.3,0 0,-98.58547 c 0,-63.20453 0.34166,-101.72197 0.95198,-107.325 3.89747,-35.779974 17.48288,-67.622804 37.94296,-88.934504 10.90792,-11.36194 19.54948,-17.43449 37.07419,-26.0525503 12.88593,-6.33687 16.85779,-7.85772 24.48584,-9.37571997 21.230258,-4.22490003 60.125081,-4.67987003 80.445029,-0.94101 C -3.9772252,4.3656557 19.037332,16.146956 38.019475,35.129096 c 21.319704,21.31971 34.216344,49.11085 37.700424,81.241414 0.60669,5.59445 0.9477,45.47616 0.9477,110.82298 l 0,102.08345 -24.075,0.54568 c -13.24125,0.30012 -32.07375,0.71295 -41.85,0.9174 l -17.7750002,0.37172 -0.01782,-104.09039 z"
         style="fill:none;stroke:#000000;stroke-width:0.1;stroke-miterlimit:4;stroke-dasharray:none;stroke-opacity:1" />
      <path
         id="path5384"
         transform="translate(-836.17184,-123.26902)"
         d="M 1575.7324 120.84961 C 1551.0891 120.84037 1526.28 125.62823 1506.2812 135 C 1471.1619 151.45748 1448.5545 181.22763 1439.7832 222.57422 L 1437.7324 232.25 L 1478.0449 232.25 L 1518.3594 232.25 L 1519.4746 227.52539 C 1524.8176 204.85767 1547.3585 189.05078 1574.3398 189.05078 C 1595.8675 189.05078 1617.0894 200.12498 1624.6836 215.32227 C 1632.1979 230.35974 1624.9812 241.53198 1603.3789 248.30664 C 1591.9441 251.89268 1584.7171 253.22328 1558.5898 256.54688 C 1511.2858 262.5643 1496.3644 265.78876 1481.1895 273.27148 C 1450.6016 288.35425 1432.6973 315.75233 1429.5195 352.3418 C 1428.4539 364.61116 1429.3451 374.42467 1432.5195 385.36523 C 1443.8855 424.53713 1476.0392 450.07441 1518.4062 453.58008 C 1531.5706 454.66936 1603.7294 454.68848 1613.75 453.60547 C 1663.1572 448.26562 1699.1776 412.20605 1711.2988 355.95117 C 1713.1067 347.56073 1713.2516 343.90028 1713.6074 297.5 C 1713.8719 263.01662 1713.6633 245.0202 1712.9199 238.17578 C 1707.2867 186.31166 1676.7741 146.0984 1630.5898 129.67578 C 1613.9659 123.76447 1594.8994 120.8568 1575.7324 120.84961 z M 1626.3672 292.97852 C 1626.5647 293.17602 1626.9396 304.19638 1627.1992 317.46875 C 1627.7733 346.82245 1626.999 352.42249 1620.5723 365.42969 C 1617.1484 372.35947 1614.9913 375.32637 1609.0742 381.24023 C 1601.2038 389.1063 1594.4077 393.10798 1584.7246 395.58008 C 1580.8755 396.56277 1574.7755 396.94443 1563.125 396.92773 C 1548.7407 396.90715 1546.2208 396.67582 1541.0195 394.90234 C 1529.1811 390.86577 1519.7071 382.61763 1514.6582 371.95117 C 1512.0343 366.40782 1511.791 365.14533 1511.791 356.90039 C 1511.7886 345.85538 1513.5106 339.75315 1518.8164 332 C 1523.1805 325.62283 1530.6387 320.0005 1538.9336 316.83398 C 1541.8245 315.73041 1550.2645 313.64755 1557.6895 312.20703 C 1565.1145 310.7665 1576.252 308.60805 1582.4395 307.41016 C 1598.3732 304.32539 1608.6573 301.1968 1617.9492 296.60352 C 1622.3819 294.41233 1626.1697 292.78102 1626.3672 292.97852 z "
         style="fill:none;stroke:#000000;stroke-width:0.1;stroke-miterlimit:4;stroke-dasharray:none;stroke-opacity:1" />
      <path
         id="path5378"
         d="m 106.3676,232.82634 c 0,-61.46017 0.34884,-101.00311 0.94284,-106.87501 3.76524,-37.220804 17.79147,-69.053624 40.41828,-91.730114 21.82338,-21.87131 48.22272,-33.32787027 85.08888,-36.9260803 18.78462,-1.83342 34.83054,0.0662 53.55828,6.34054 17.3745,5.821 32.53851,14.5736303 43.37649,25.0368703 l 6.07473,5.86465 6.44409,-6.07902 c 15.22143,-14.35914 34.86582,-23.9290103 60.40035,-29.42441027 12.09177,-2.60233003 37.15902,-2.82671003 49.95828,-0.44719003 36.6534,6.8143 66.75714,25.4395803 86.72625,53.6578703 14.92047,21.08412 23.08257,44.68093 25.0911,72.538904 0.52173,7.23689 0.90801,53.4015 0.91251,109.07263 l 0.008,96.525 -41.37597,0 -41.37597,0 -0.27468,-110.025 c -0.3015,-120.816494 0.10935,-111.82968 -5.63526,-123.266894 -13.24395,-26.3681 -43.2729,-35.639 -70.6995,-21.8272 -11.61558,5.8495 -20.82132,16.77103 -25.38747,30.119094 l -2.00115,5.85 -0.24912,109.575 -0.24912,109.575 -42.27588,0 -42.27588,0 0,-108.35519 c 0,-107.31526 -0.018,-108.41442 -1.87956,-114.525 -5.52735,-18.143564 -18.78588,-31.486224 -35.65332,-35.879634 -6.63903,-1.72924 -19.12014,-1.71517 -25.95303,0.0293 -16.94718,4.32662 -29.13633,15.73067 -36.0729,33.749454 l -2.59119,6.73112 -0.24246,109.125 -0.24255,109.125 -42.28245,0 -42.28254,0 0,-97.55464 z"
         style="fill:none;stroke:#000000;stroke-width:0.1;stroke-miterlimit:4;stroke-dasharray:none;stroke-opacity:1" />
      <path
         id="path5376"
         d="m 907.38317,240.15598 c 0.018,-103.92047 0.324,-109.26958 7.72578,-135.06114 C 933.15593,42.210266 978.89373,4.0137457 1044.038,-2.5761843 c 10.3254,-1.04451 25.7441,-1.22641 30.9546,-0.36517 l 3.375,0.55784 0,39.7962903 0,39.79629 -8.775,0.54946 c -13.7406,0.86038 -27.4802,4.95937 -38.726,11.5533 -7.4023,4.34031 -20.7593,17.902334 -25.1334,25.519154 -4.624,8.05211 -8.01007,16.63927 -10.62077,26.93372 -4.0971,16.15688 -4.3604,23.93081 -3.6979,109.19128 l 0.6171,79.425 -42.33199,0 -42.33204,0 0.0153,-90.225 z"
         style="fill:none;stroke:#000000;stroke-width:0.1;stroke-miterlimit:4;stroke-dasharray:none;stroke-opacity:1" />
      <g
         id="g6004">
        <path
           style="fill:none;stroke:#000000;stroke-width:0.1;stroke-miterlimit:4;stroke-dasharray:none;stroke-opacity:1"
           d="m 1149.4676,247.37799 -84.15,-83.67559 84.0299,-83.610714 84.0299,-83.6107103 57.0451,0 c 55.6873,0 57.0451,0.0412 57.0451,1.73101 0,1.09661003 -30.0985,31.7677303 -82.125,83.6875503 l -82.125,81.956534 83.25,82.69182 83.25,82.69182 -31.95,0.55397 c -17.5725,0.30467 -43.695,0.7128 -58.05,0.90693 l -26.1,0.35297 -84.15,-83.67559 z"
           id="path5380" />
        <path
           style="fill:none;stroke:#000000;stroke-width:0.1;stroke-miterlimit:4;stroke-dasharray:none;stroke-opacity:1"
           d="m 1305.6176,-77.319024 45.8933,-45.899996 57.3783,0 c 54.0933,0 57.3784,0.0904 57.3784,1.57841 0,0.88327 -19.5224,21.09777 -44.3284,45.899996 l -44.3284,44.32159 -58.9433,0 -58.9433,0 45.8934,-45.9 z"
           id="path4221" />
      </g>
    </g>
  </g>
</svg>
