<?xml version="1.0" encoding="UTF-8" standalone="no"?>
<!-- Created with Inkscape (http://www.inkscape.org/) -->

<svg
   xmlns:dc="http://purl.org/dc/elements/1.1/"
   xmlns:cc="http://creativecommons.org/ns#"
   xmlns:rdf="http://www.w3.org/1999/02/22-rdf-syntax-ns#"
   xmlns:svg="http://www.w3.org/2000/svg"
   xmlns="http://www.w3.org/2000/svg"
   xmlns:sodipodi="http://sodipodi.sourceforge.net/DTD/sodipodi-0.dtd"
   xmlns:inkscape="http://www.inkscape.org/namespaces/inkscape"
   width="649.81366mm"
   height="128.25793mm"
   viewBox="0 0 2302.4893 454.45725"
   id="svg2"
   version="1.1"
   inkscape:version="0.91 r13725"
   sodipodi:docname="logo.svg"
   style="enable-background:new">
  <defs
     id="defs4" />
  <sodipodi:namedview
     id="base"
     pagecolor="#ffffff"
     bordercolor="#666666"
     borderopacity="1.0"
     inkscape:pageopacity="0.0"
     inkscape:pageshadow="2"
     inkscape:zoom="0.70710678"
     inkscape:cx="157.77155"
     inkscape:cy="249.97226"
     inkscape:document-units="px"
     inkscape:current-layer="layer1"
     showgrid="false"
     inkscape:window-width="1366"
     inkscape:window-height="744"
     inkscape:window-x="0"
     inkscape:window-y="24"
     inkscape:window-maximized="1"
     fit-margin-top="0"
     fit-margin-left="0"
     fit-margin-right="0"
     fit-margin-bottom="0" />
  <metadata
     id="metadata7">
    <rdf:RDF>
      <cc:Work
         rdf:about="">
        <dc:format>image/svg+xml</dc:format>
        <dc:type
           rdf:resource="http://purl.org/dc/dcmitype/StillImage" />
        <dc:title></dc:title>
      </cc:Work>
    </rdf:RDF>
  </metadata>
  <g
     inkscape:label="logo"
     inkscape:groupmode="layer"
     id="layer1"
     transform="translate(836.17184,123.26902)">
    <path
       style="fill:none;stroke:#000000;stroke-width:0.1;stroke-miterlimit:4;stroke-dasharray:none;stroke-opacity:1"
       d="m -698.6824,330.73995 c -29.0101,-2.25238 -50.33279,-7.47017 -71.21716,-17.42724 -40.89228,-19.49629 -61.89133,-47.0953 -65.59818,-86.21551 l -0.61911,-6.53379 43.06723,0.23379 43.06722,0.23378 0.53458,4.97001 c 2.25721,20.98521 19.75135,36.29097 46.88819,41.02285 11.20103,1.95313 30.59981,1.30727 40.66757,-1.35399 17.06587,-4.51111 29.5726,-13.70256 32.54157,-23.91546 2.87271,-9.88177 -0.0938,-16.60574 -10.29506,-23.33523 -8.28484,-5.46527 -19.58157,-9.69664 -37.43685,-14.02258 -84.8782,-20.56412 -99.11529,-25.54031 -118.91205,-41.56251 -11.53916,-9.33903 -21.56895,-24.65632 -25.02457,-38.21699 -6.64617,-26.081194 -0.35662,-60.041114 15.12247,-81.652474 22.64284,-31.61315 76.78132,-51.2370303 130.77401,-47.4023903 37.78317,2.6834 67.69041,14.8281103 90.44408,36.7274503 16.24213,15.63229 25.62381,34.09612 29.05046,57.17343 0.76758,5.16939 1.3956,9.85316 1.3956,10.40839 0,0.731314 -11.36895,1.009494 -41.25678,1.009494 l -41.25679,0 -1.11777,-4.994754 c -0.61478,-2.74711 -2.71308,-8.18206 -4.66289,-12.07767 -8.43953,-16.86165 -24.72895,-24.79349 -50.75577,-24.71463 -9.26034,0.0281 -13.16219,0.44901 -18.71234,2.01874 -13.74858,3.88849 -24.95707,11.27402 -29.01301,19.11733 -2.23101,4.31431 -2.76947,12.48681 -1.04272,15.82598 5.24043,10.133884 20.85609,17.006584 58.1942,25.612234 45.21178,10.42035 75.70335,19.17317 88.94931,25.53349 29.57141,14.19933 46.97616,36.93281 49.5279,64.69161 1.79491,19.5258 -1.86697,40.05244 -10.13967,56.83767 -16.43841,33.35347 -49.87748,54.11254 -97.07472,60.26431 -10.60597,1.3824 -37.59585,2.40408 -46.08895,1.74466 z m 262.35,-0.39853 c -21.79307,-1.96161 -37.87706,-7.82457 -53.57497,-19.52922 -30.69608,-22.88757 -43.08509,-61.26692 -32.75214,-101.46138 5.63998,-21.93912 19.40054,-41.26026 38.34216,-53.83606 16.95817,-11.25894 31.7369,-15.03547 87.13495,-22.26632 28.73839,-3.7511 35.4028,-4.95333 45.45,-8.19896 23.23552,-7.50596 29.73527,-20.32848 18.68939,-36.869824 -5.54705,-8.30678 -15.76233,-15.34053 -28.60881,-19.69866 -8.14217,-2.76221 -24.96669,-3.46404 -33.73058,-1.40706 -20.31376,4.76784 -36.61101,19.58739 -40.49159,36.820134 l -1.04418,4.63691 -40.20712,0.23427 c -38.9081,0.22669 -40.20711,0.17931 -40.20711,-1.46654 0,-3.15073 5.57851,-23.911524 8.19861,-30.511614 7.04129,-17.73722 14.79269,-29.70635 27.25801,-42.08974 22.29565,-22.14915 50.52928,-33.70760027 89.33164,-36.5711303 36.89443,-2.72272 70.34427,5.16349 96.14802,22.6681103 26.57951,18.03085 44.6509,45.97147 51.68346,79.909024 3.08846,14.90426 3.91352,33.79369 3.40814,78.02762 -0.52364,45.83331 -1.17999,51.88441 -7.76345,71.57498 -15.68739,46.91961 -48.88554,75.52905 -92.88238,80.04398 -10.25376,1.05223 -82.66991,1.04569 -94.38205,-0.008 z m 65.49224,-58.01732 c 17.9558,-4.23344 33.0197,-19.03481 39.83739,-39.14312 2.6306,-7.75877 3.73544,-27.72746 2.65768,-48.03429 -0.44323,-8.35136 -0.98844,-15.36684 -1.21156,-15.58997 -0.22313,-0.22312 -1.9627,0.57205 -3.86572,1.76705 -8.98553,5.64245 -24.13191,10.10869 -50.9907,15.0357 -23.89503,4.38334 -29.16658,5.70576 -36.34781,9.11821 -23.83794,11.32757 -30.82103,42.25456 -14.13783,62.6142 3.96242,4.83562 13.71841,11.30684 20.61631,13.67494 4.66023,1.5999 7.61931,1.85617 21.6,1.87071 11.20182,0.0116 17.9408,-0.39358 21.84224,-1.31343 z M -7.0502302,227.02135 C -7.0612102,162.68227 -7.4107522,120.56014 -7.9654222,116.72282 -11.305169,93.617856 -25.985879,75.604786 -47.011832,68.813286 c -9.694017,-3.13122 -26.65233,-3.9483 -36.070569,-1.73795 -10.872108,2.55156 -18.828679,7.1194 -27.475539,15.77359 -8.63749,8.64481 -13.08686,16.10834 -16.11303,27.028674 -1.83376,6.61734 -1.86143,8.30643 -1.86143,113.61029 l 0,106.89309 -42.3,0 -42.3,0 0,-98.58547 c 0,-63.20453 0.34166,-101.72197 0.95198,-107.325 3.89747,-35.779974 17.48288,-67.622804 37.94296,-88.934504 10.90792,-11.36194 19.54948,-17.43449 37.07419,-26.0525503 12.88593,-6.33687 16.85779,-7.85772 24.48584,-9.37571997 21.230258,-4.22490003 60.125081,-4.67987003 80.445029,-0.94101 C -3.9772252,4.3656557 19.037332,16.146956 38.019475,35.129096 c 21.319704,21.31971 34.216344,49.11085 37.700424,81.241414 0.60669,5.59445 0.9477,45.47616 0.9477,110.82298 l 0,102.08345 -24.075,0.54568 c -13.24125,0.30012 -32.07375,0.71295 -41.85,0.9174 l -17.7750002,0.37172 -0.01782,-104.09039 z M 682.23449,330.31062 c -42.36705,-3.50567 -74.52018,-29.0434 -85.88619,-68.2153 -3.17448,-10.94056 -4.06602,-20.75287 -3.00042,-33.02223 3.17772,-36.58947 21.08187,-63.98863 51.66972,-79.0714 15.17499,-7.48272 30.09591,-10.70677 77.4,-16.7242 26.12727,-3.32359 33.35472,-4.65309 44.78949,-8.23913 21.60225,-6.77466 28.81872,-17.94781 21.30444,-32.985284 -7.5942,-15.19729 -28.81629,-26.2721 -50.34393,-26.2721 -26.98137,0 -49.52277,15.80728 -54.8658,38.475004 l -1.11375,4.725 -40.31406,0 -40.31415,0 2.05245,-9.675004 c 8.77131,-41.34659 31.37688,-71.11806 66.49623,-87.57554 35.55342,-16.6609303 86.31144,-18.8343103 124.30908,-5.3227503 46.18422,16.4226203 76.69755,56.6341803 82.33074,108.4983043 0.7434,6.84442 0.95193,24.84161 0.68742,59.32499 -0.35586,46.40028 -0.5004,50.06051 -2.30832,58.45095 -12.1212,56.25488 -48.14217,92.31465 -97.54938,97.6545 -10.0206,1.08301 -82.17927,1.06348 -95.34357,-0.0258 z m 66.31902,-57.9991 c 9.6831,-2.4721 16.47756,-6.47372 24.34797,-14.33979 5.91705,-5.91386 8.07471,-8.88053 11.49858,-15.81031 6.42672,-13.0072 7.20054,-18.60831 6.62643,-47.96201 -0.25965,-13.27237 -0.6336,-24.29316 -0.83115,-24.49066 -0.19746,-0.1975 -3.98574,1.43371 -8.41842,3.6249 -9.29187,4.59328 -19.57554,7.72335 -35.50932,10.80812 -6.1875,1.19789 -17.325,3.35661 -24.75,4.79714 -7.425,1.44052 -15.86529,3.52206 -18.75618,4.62563 -8.29494,3.16652 -15.75225,8.78865 -20.11635,15.16582 -5.30577,7.75315 -7.02738,13.85561 -7.02495,24.90062 0,8.24494 0.24228,9.50765 2.86623,15.051 5.04891,10.66646 14.52204,18.91419 26.36046,22.95076 5.20128,1.77348 7.72245,2.00442 22.1067,2.025 11.6505,0.0167 17.75088,-0.36353 21.6,-1.34622 z m 400.91409,-24.93353 -84.15,-83.67559 84.0299,-83.610714 84.0299,-83.6107103 57.0451,0 c 55.6873,0 57.0451,0.0412 57.0451,1.73101 0,1.09661003 -30.0985,31.7677303 -82.125,83.6875503 l -82.125,81.956534 83.25,82.69182 83.25,82.69182 -31.95,0.55397 c -17.5725,0.30467 -43.695,0.7128 -58.05,0.90693 l -26.1,0.35297 -84.15,-83.67559 z m -1043.1,-14.55165 c 0,-61.46017 0.34884,-101.00311 0.94284,-106.87501 3.76524,-37.220804 17.79147,-69.053624 40.41828,-91.730114 21.82338,-21.87131 48.22272,-33.32787027 85.08888,-36.9260803 18.78462,-1.83342 34.83054,0.0662 53.55828,6.34054 17.3745,5.821 32.53851,14.5736303 43.37649,25.0368703 l 6.07473,5.86465 6.44409,-6.07902 c 15.22143,-14.35914 34.86582,-23.9290103 60.40035,-29.42441027 12.09177,-2.60233003 37.15902,-2.82671003 49.95828,-0.44719003 36.6534,6.8143 66.75714,25.4395803 86.72625,53.6578703 14.92047,21.08412 23.08257,44.68093 25.0911,72.538904 0.52173,7.23689 0.90801,53.4015 0.91251,109.07263 l 0.008,96.525 -41.37597,0 -41.37597,0 -0.27468,-110.025 c -0.3015,-120.816494 0.10935,-111.82968 -5.63526,-123.266894 -13.24395,-26.3681 -43.2729,-35.639 -70.6995,-21.8272 -11.61558,5.8495 -20.82132,16.77103 -25.38747,30.119094 l -2.00115,5.85 -0.24912,109.575 -0.24912,109.575 -42.27588,0 -42.27588,0 0,-108.35519 c 0,-107.31526 -0.018,-108.41442 -1.87956,-114.525 -5.52735,-18.143564 -18.78588,-31.486224 -35.65332,-35.879634 -6.63903,-1.72924 -19.12014,-1.71517 -25.95303,0.0293 -16.94718,4.32662 -29.13633,15.73067 -36.0729,33.749454 l -2.59119,6.73112 -0.24246,109.125 -0.24255,109.125 -42.28245,0 -42.28254,0 0,-97.55464 z m 801.01557,7.32964 c 0.018,-103.92047 0.324,-109.26958 7.72578,-135.06114 C 933.15593,42.210266 978.89373,4.0137457 1044.038,-2.5761843 c 10.3254,-1.04451 25.7441,-1.22641 30.9546,-0.36517 l 3.375,0.55784 0,39.7962903 0,39.79629 -8.775,0.54946 c -13.7406,0.86038 -27.4802,4.95937 -38.726,11.5533 -7.4023,4.34031 -20.7593,17.902334 -25.1334,25.519154 -4.624,8.05211 -8.01007,16.63927 -10.62077,26.93372 -4.0971,16.15688 -4.3604,23.93081 -3.6979,109.19128 l 0.6171,79.425 -42.33199,0 -42.33204,0 0.0153,-90.225 z m 398.23443,-317.475004 45.8933,-45.899996 57.3783,0 c 54.0933,0 57.3784,0.0904 57.3784,1.57841 0,0.88327 -19.5224,21.09777 -44.3284,45.899996 l -44.3284,44.32159 -58.9433,0 -58.9433,0 45.8934,-45.9 z"
       id="path4221"
       inkscape:connector-curvature="0" />
  </g>
</svg>
